<?xml version="1.0" encoding="UTF-8"?>
<svg id="_Шар_1" data-name="Шар 1" xmlns="http://www.w3.org/2000/svg" viewBox="0 0 200 50">
  <defs>
    <style>
      .cls-1 {
        fill: #000;
      }
    </style>
  </defs>
  <g>
    <g>
      <path class="cls-1" d="m69.27,31.99c.55-.34.82-.81.82-1.4,0-.4-.08-.73-.23-1-.15-.26-.45-.5-.89-.72-.44-.22-1.11-.44-2.01-.67-.97-.25-1.76-.52-2.39-.81-.62-.29-1.11-.68-1.45-1.16-.34-.48-.52-1.08-.52-1.81s.21-1.37.62-1.91,1-.97,1.76-1.26c.76-.29,1.64-.44,2.65-.44,1.89,0,3.49.49,4.8,1.46l-1.01,1.54c-.55-.37-1.12-.65-1.72-.85-.6-.2-1.27-.29-2.02-.29-.92,0-1.59.14-2.02.42-.43.28-.64.67-.64,1.17,0,.36.1.66.3.89s.54.44,1,.63c.47.19,1.16.41,2.08.66.93.25,1.7.54,2.3.85.6.31,1.07.72,1.4,1.23.34.51.5,1.16.5,1.94,0,.89-.26,1.62-.78,2.22-.52.59-1.2,1.03-2.04,1.3-.85.28-1.77.42-2.77.42-1.11,0-2.09-.16-2.95-.49-.86-.32-1.6-.76-2.23-1.3l1.3-1.5c.53.44,1.12.78,1.78,1.03.66.25,1.36.38,2.1.38.94,0,1.69-.17,2.23-.52Z"/>
      <path class="cls-1" d="m79.63,22.8c.51-.65,1.12-1.14,1.84-1.48.72-.34,1.47-.51,2.25-.51,1.22,0,2.14.33,2.74,1,.6.67.9,1.61.9,2.84v9.44h-2.36v-9.23c0-.77-.17-1.33-.5-1.69-.33-.35-.86-.53-1.58-.53-.64,0-1.25.2-1.83.6-.58.4-1.06.89-1.46,1.46v9.38h-2.36V15.92l2.36-.26v7.14Z"/>
      <path class="cls-1" d="m93.94,28.4c.04.92.23,1.68.56,2.29s.77,1.06,1.31,1.35c.54.29,1.15.44,1.82.44.63,0,1.22-.09,1.75-.28s1.1-.48,1.68-.87l1.07,1.49c-.62.49-1.32.88-2.12,1.16-.8.28-1.62.42-2.46.42-1.28,0-2.38-.28-3.29-.84-.91-.56-1.6-1.35-2.08-2.38-.48-1.02-.71-2.21-.71-3.56s.24-2.47.71-3.5c.47-1.03,1.15-1.84,2.02-2.42.87-.59,1.89-.88,3.06-.88s2.07.26,2.88.78c.81.52,1.44,1.26,1.87,2.22.43.96.65,2.1.65,3.42,0,.38-.02.77-.05,1.18h-8.68Zm1.02-4.73c-.59.68-.93,1.68-1.02,3.01h6.45c-.02-1.3-.31-2.3-.85-2.99-.54-.69-1.29-1.03-2.25-1.03s-1.74.34-2.33,1.02Z"/>
      <path class="cls-1" d="m114.51,15.61l2.36.28v18.19h-2.08l-.2-1.66c-.46.66-1,1.15-1.62,1.48s-1.3.49-2.05.49c-1.62,0-2.85-.61-3.67-1.82-.82-1.21-1.24-2.87-1.24-4.96,0-1.31.21-2.48.62-3.51s1-1.84,1.77-2.42c.77-.58,1.68-.87,2.73-.87,1.39,0,2.52.49,3.38,1.48v-6.67Zm-5.14,8.29c-.55.83-.82,2.06-.82,3.71s.25,2.88.75,3.69c.5.81,1.23,1.22,2.19,1.22,1.16,0,2.17-.65,3.02-1.96v-6.34c-.35-.5-.75-.89-1.22-1.16-.47-.27-.99-.41-1.54-.41-1.03,0-1.82.41-2.37,1.24Z"/>
      <path class="cls-1" d="m124.64,30.99c.2-.34.47-.61.81-.81.34-.2.72-.3,1.14-.3s.81.1,1.16.3.62.47.82.81c.2.34.3.72.3,1.13s-.1.8-.3,1.15-.47.62-.82.83c-.34.2-.73.3-1.16.3s-.8-.1-1.14-.3c-.34-.2-.61-.48-.81-.83-.2-.35-.29-.73-.29-1.15s.1-.79.29-1.13Z"/>
      <path class="cls-1" d="m138.25,28.4c.04.92.23,1.68.56,2.29s.77,1.06,1.31,1.35c.54.29,1.15.44,1.82.44.63,0,1.22-.09,1.75-.28.54-.19,1.1-.48,1.68-.87l1.07,1.49c-.62.49-1.32.88-2.12,1.16-.8.28-1.62.42-2.46.42-1.28,0-2.38-.28-3.29-.84s-1.6-1.35-2.08-2.38-.71-2.21-.71-3.56.24-2.47.71-3.5c.47-1.03,1.14-1.84,2.02-2.42.87-.59,1.89-.88,3.06-.88s2.07.26,2.88.78c.81.52,1.44,1.26,1.87,2.22.44.96.65,2.1.65,3.42,0,.38-.02.77-.05,1.18h-8.68Zm1.01-4.73c-.59.68-.93,1.68-1.01,3.01h6.45c-.03-1.3-.31-2.3-.85-2.99-.54-.69-1.29-1.03-2.25-1.03s-1.74.34-2.33,1.02Z"/>
      <path class="cls-1" d="m158.82,15.61l2.36.28v18.19h-2.08l-.2-1.66c-.46.66-1,1.15-1.62,1.48-.62.33-1.3.49-2.05.49-1.62,0-2.85-.61-3.67-1.82-.82-1.21-1.24-2.87-1.24-4.96,0-1.31.21-2.48.62-3.51s1-1.84,1.77-2.42c.77-.58,1.68-.87,2.73-.87,1.39,0,2.52.49,3.38,1.48v-6.67Zm-5.14,8.29c-.55.83-.82,2.06-.82,3.71s.25,2.88.75,3.69c.5.81,1.23,1.22,2.19,1.22,1.17,0,2.17-.65,3.02-1.96v-6.34c-.34-.5-.75-.89-1.22-1.16-.47-.27-.99-.41-1.54-.41-1.03,0-1.82.41-2.37,1.24Z"/>
      <path class="cls-1" d="m168.24,30.24c0,.81.16,1.4.49,1.76.33.36.84.54,1.55.54.64,0,1.26-.19,1.86-.56.6-.37,1.08-.84,1.43-1.4v-9.48h2.36v12.97h-2.03l-.17-1.71c-.49.64-1.11,1.14-1.85,1.49-.74.35-1.5.53-2.28.53-1.24,0-2.17-.33-2.8-1-.63-.67-.94-1.62-.94-2.85v-9.43h2.36v9.13Z"/>
    </g>
    <path class="cls-1" d="m24.05,13.03c0-.95.76-1.71,1.71-1.71h3.42c.95,0,1.71.76,1.71,1.71v3.42h-6.84v-3.42Zm0,5.13h6.84v13.69h-6.84v-13.69Zm0,15.4h6.84v3.42c0,.95-.76,1.71-1.71,1.71h-3.42c-.95,0-1.71-.76-1.71-1.71v-3.42Zm8.55-20.53c0-.95.76-1.71,1.71-1.71h3.42c.95,0,1.71.76,1.71,1.71v3.42h-6.84v-3.42Zm0,5.13h6.84v13.69h-6.84v-13.69Zm0,15.4h6.84v3.42c0,.95-.76,1.71-1.71,1.71h-3.42c-.95,0-1.71-.76-1.71-1.71v-3.42Zm10.88-1.06l-2.33-8.74v-4.8l5.37-1.44,3.53,13.23-6.56,1.75Zm2.6-16.63l-4.93,1.32v-5.27l1.97-.53c.9-.25,1.84.29,2.08,1.21l.88,3.28Zm-2.16,18.28l6.56-1.76.87,3.27c.24.91-.29,1.84-1.2,2.09l-3.28.88c-.9.25-1.84-.29-2.08-1.21l-.87-3.27Z"/>
  </g>
  <path class="cls-1" d="m199,1v48H1V1h198m1-1H0v50h200V0h0Z"/>
</svg>
